<?xml version="1.0" encoding="utf-8"?>
<!-- Generator: Adobe Illustrator 27.3.1, SVG Export Plug-In . SVG Version: 6.00 Build 0)  -->
<svg version="1.1" id="Layer_1" xmlns="http://www.w3.org/2000/svg" xmlns:xlink="http://www.w3.org/1999/xlink" x="0px" y="0px"
	 viewBox="0 0 904.7 508.9" style="enable-background:new 0 0 904.7 508.9;" xml:space="preserve">
<style type="text/css">
	.st0{opacity:0.25;clip-path:url(#SVGID_00000110449031587194217880000007609274215140737977_);}
</style>
<rect x="-3.9" width="908.6" height="508.9"/>
<image style="overflow:visible;enable-background:new    ;" width="1920" height="1080" xlink:href="F9A2475C.jpeg"  transform="matrix(1 0 0 1 1432.6289 1188)">
</image>
<g>
	<defs>
		<rect id="SVGID_1_" x="-3.9" width="908.6" height="508.9"/>
	</defs>
	<clipPath id="SVGID_00000100383330616931764240000010990709502937762733_">
		<use xlink:href="#SVGID_1_"  style="overflow:visible;"/>
	</clipPath>
	<g style="opacity:0.25;clip-path:url(#SVGID_00000100383330616931764240000010990709502937762733_);">
		
			<image style="overflow:visible;" width="1080" height="1080" xlink:href="../../../../../../../Users/DELL/Desktop/New folder/social-media-posters-mdesign (1).jpg"  transform="matrix(0.1356 -6.261617e-02 6.261617e-02 0.1356 249.872 675.2199)">
		</image>
		
			<image style="overflow:visible;" width="1080" height="1080" xlink:href="../../../../../../../Users/DELL/Desktop/New folder/social-media-posters-mdesign (2).jpg"  transform="matrix(0.1356 -6.261617e-02 6.261617e-02 0.1356 85.2923 751.2194)">
		</image>
		
			<image style="overflow:visible;" width="1080" height="1080" xlink:href="../../../../../../../Users/DELL/Desktop/New folder/social-media-posters-mdesign (3).jpg"  transform="matrix(0.1356 -6.261617e-02 6.261617e-02 0.1356 -79.2874 827.2188)">
		</image>
		
			<image style="overflow:visible;" width="1080" height="1080" xlink:href="../../../../../../../Users/DELL/Desktop/New folder/social-media-posters-mdesign (5).jpg"  transform="matrix(0.1356 -6.261617e-02 6.261617e-02 0.1356 -408.4468 979.2177)">
		</image>
		
			<image style="overflow:visible;" width="1080" height="1080" xlink:href="../../../../../../../Users/DELL/Desktop/New folder/social-media-posters-mdesign (6).jpg"  transform="matrix(0.1356 -6.261617e-02 6.261617e-02 0.1356 908.1908 371.2221)">
		</image>
		
			<image style="overflow:visible;" width="1000" height="1000" xlink:href="../../../../../../../Users/DELL/Desktop/New folder/social-media-posters-mdesign (7).jpg"  transform="matrix(0.1356 -6.261617e-02 6.261617e-02 0.1356 584.0407 534.0688)">
		</image>
		
			<image style="overflow:visible;" width="1080" height="1080" xlink:href="../../../../../../../Users/DELL/Desktop/New folder/social-media-posters-mdesign (8).jpg"  transform="matrix(0.1356 -6.261617e-02 6.261617e-02 0.1356 414.4517 599.2205)">
		</image>
		
			<image style="overflow:visible;" width="1080" height="1080" xlink:href="../../../../../../../Users/DELL/Desktop/New folder/social-media-posters-mdesign (11).jpg"  transform="matrix(0.1356 -6.261617e-02 6.261617e-02 0.1356 831.7136 205.6078)">
		</image>
		
			<image style="overflow:visible;" width="1080" height="1080" xlink:href="../../../../../../../Users/DELL/Desktop/New folder/social-media-posters-mdesign (12).jpg"  transform="matrix(0.1356 -6.261617e-02 6.261617e-02 0.1356 667.1339 281.6073)">
		</image>
		
			<image style="overflow:visible;" width="1080" height="1080" xlink:href="../../../../../../../Users/DELL/Desktop/New folder/social-media-posters-mdesign (13).jpg"  transform="matrix(0.1356 -6.261617e-02 6.261617e-02 0.1356 504.4327 361.6746)">
		</image>
		
			<image style="overflow:visible;" width="1080" height="1080" xlink:href="../../../../../../../Users/DELL/Desktop/New folder/social-media-posters-mdesign (14).jpg"  transform="matrix(0.1356 -6.261617e-02 6.261617e-02 0.1356 337.9745 433.6061)">
		</image>
		
			<image style="overflow:visible;" width="1080" height="1080" xlink:href="../../../../../../../Users/DELL/Desktop/New folder/social-media-posters-mdesign (15).jpg"  transform="matrix(0.1356 -6.261617e-02 6.261617e-02 0.1356 173.3948 509.6056)">
		</image>
		
			<image style="overflow:visible;" width="1080" height="1080" xlink:href="../../../../../../../Users/DELL/Desktop/New folder/social-media-posters-mdesign (16).jpg"  transform="matrix(0.1356 -6.261617e-02 6.261617e-02 0.1356 8.8151 585.605)">
		</image>
		
			<image style="overflow:visible;" width="1080" height="1080" xlink:href="../../../../../../../Users/DELL/Desktop/New folder/social-media-posters-mdesign (17).jpg"  transform="matrix(0.1356 -6.261617e-02 6.261617e-02 0.1356 -155.7646 661.6044)">
		</image>
		
			<image style="overflow:visible;" width="1080" height="1080" xlink:href="../../../../../../../Users/DELL/Desktop/New folder/social-media-posters-mdesign (18).jpg"  transform="matrix(0.1356 -6.261617e-02 6.261617e-02 0.1356 -320.3443 737.6039)">
		</image>
		
			<image style="overflow:visible;" width="1080" height="1080" xlink:href="../../../../../../../Users/DELL/Desktop/New folder/social-media-posters-mdesign (19).jpg"  transform="matrix(0.1356 -6.261617e-02 6.261617e-02 0.1356 -487.3087 808.4394)">
		</image>
		
			<image style="overflow:visible;" width="1080" height="1080" xlink:href="../../../../../../../Users/DELL/Desktop/New folder/social-media-posters-mdesign (21).jpg"  transform="matrix(0.1356 -6.261617e-02 6.261617e-02 0.1356 755.2364 39.9935)">
		</image>
		
			<image style="overflow:visible;" width="1080" height="1080" xlink:href="../../../../../../../Users/DELL/Desktop/New folder/social-media-posters-mdesign (22).jpg"  transform="matrix(0.1356 -6.261617e-02 6.261617e-02 0.1356 590.6567 115.9929)">
		</image>
		
			<image style="overflow:visible;" width="1080" height="1080" xlink:href="../../../../../../../Users/DELL/Desktop/New folder/social-media-posters-mdesign (23).jpg"  transform="matrix(0.1356 -6.261617e-02 6.261617e-02 0.1356 427.3293 194.7043)">
		</image>
		
			<image style="overflow:visible;" width="1080" height="1080" xlink:href="../../../../../../../Users/DELL/Desktop/New folder/social-media-posters-mdesign (24).jpg"  transform="matrix(0.1356 -6.261617e-02 6.261617e-02 0.1356 261.4973 267.9918)">
		</image>
		
			<image style="overflow:visible;" width="1080" height="1080" xlink:href="../../../../../../../Users/DELL/Desktop/New folder/social-media-posters-mdesign (25).jpg"  transform="matrix(0.1356 -6.261617e-02 6.261617e-02 0.1356 96.9176 343.9912)">
		</image>
		
			<image style="overflow:visible;" width="1080" height="1080" xlink:href="../../../../../../../Users/DELL/Desktop/New folder/social-media-posters-mdesign (27).jpg"  transform="matrix(0.1356 -6.261617e-02 6.261617e-02 0.1356 -67.6621 419.9907)">
		</image>
		
			<image style="overflow:visible;" width="1080" height="1080" xlink:href="../../../../../../../Users/DELL/Desktop/New folder/social-media-posters-mdesign (28).jpg"  transform="matrix(0.1356 -6.261617e-02 6.261617e-02 0.1356 -232.2418 495.9901)">
		</image>
		
			<image style="overflow:visible;" width="1080" height="1080" xlink:href="../../../../../../../Users/DELL/Desktop/New folder/social-media-posters-mdesign (29).jpg"  transform="matrix(0.1356 -6.261617e-02 6.261617e-02 0.1356 -396.8215 571.9896)">
		</image>
		
			<image style="overflow:visible;" width="1080" height="1080" xlink:href="../../../../../../../Users/DELL/Desktop/New folder/social-media-posters-mdesign (30).jpg"  transform="matrix(0.1356 -6.261617e-02 6.261617e-02 0.1356 -563.0712 644.3727)">
		</image>
		
			<image style="overflow:visible;" width="1080" height="1080" xlink:href="../../../../../../../Users/DELL/Desktop/New folder/social-media-posters-mdesign (31).jpg"  transform="matrix(0.1356 -6.261617e-02 6.261617e-02 0.1356 -243.8671 903.2182)">
		</image>
		
			<image style="overflow:visible;" width="1080" height="1080" xlink:href="../../../../../../../Users/DELL/Desktop/New folder/social-media-posters-mdesign (32).jpg"  transform="matrix(0.1356 -6.261617e-02 6.261617e-02 0.1356 678.7592 -125.6208)">
		</image>
		
			<image style="overflow:visible;" width="1080" height="1080" xlink:href="../../../../../../../Users/DELL/Desktop/New folder/social-media-posters-mdesign (33).jpg"  transform="matrix(0.1356 -6.261617e-02 6.261617e-02 0.1356 514.1794 -49.6214)">
		</image>
		
			<image style="overflow:visible;" width="1080" height="1080" xlink:href="../../../../../../../Users/DELL/Desktop/New folder/social-media-posters-mdesign (34).jpg"  transform="matrix(0.1356 -6.261617e-02 6.261617e-02 0.1356 350.2259 27.734)">
		</image>
		
			<image style="overflow:visible;" width="1080" height="1080" xlink:href="../../../../../../../Users/DELL/Desktop/New folder/social-media-posters-mdesign (35).jpg"  transform="matrix(0.1356 -6.261617e-02 6.261617e-02 0.1356 185.0201 102.3775)">
		</image>
		
			<image style="overflow:visible;" width="1080" height="1080" xlink:href="../../../../../../../Users/DELL/Desktop/New folder/social-media-posters-mdesign (36).jpg"  transform="matrix(0.1356 -6.261617e-02 6.261617e-02 0.1356 20.4404 178.3769)">
		</image>
		
			<image style="overflow:visible;" width="1080" height="1080" xlink:href="../../../../../../../Users/DELL/Desktop/New folder/social-media-posters-mdesign (37).jpg"  transform="matrix(0.1356 -6.261617e-02 6.261617e-02 0.1356 -144.1393 254.3764)">
		</image>
		
			<image style="overflow:visible;" width="1080" height="1080" xlink:href="../../../../../../../Users/DELL/Desktop/New folder/social-media-posters-mdesign (38).jpg"  transform="matrix(0.1356 -6.261617e-02 6.261617e-02 0.1356 -308.7191 330.3758)">
		</image>
		
			<image style="overflow:visible;" width="1080" height="1080" xlink:href="../../../../../../../Users/DELL/Desktop/New folder/social-media-posters-mdesign (39).jpg"  transform="matrix(0.1356 -6.261617e-02 6.261617e-02 0.1356 -473.2987 406.3752)">
		</image>
		
			<image style="overflow:visible;" width="1080" height="1080" xlink:href="../../../../../../../Users/DELL/Desktop/New folder/social-media-posters-mdesign (40).jpg"  transform="matrix(0.1356 -6.261617e-02 6.261617e-02 0.1356 -638.8337 480.3061)">
		</image>
		
			<image style="overflow:visible;" width="1080" height="1080" xlink:href="../../../../../../../Users/DELL/Desktop/New folder/social-media-posters-mdesign (41).jpg"  transform="matrix(0.1356 -6.261617e-02 6.261617e-02 0.1356 743.6111 447.2216)">
		</image>
		
			<image style="overflow:visible;" width="1080" height="1080" xlink:href="../../../../../../../Users/DELL/Desktop/New folder/social-media-posters-mdesign (42).jpg"  transform="matrix(0.1356 -6.261617e-02 6.261617e-02 0.1356 602.282 -291.2352)">
		</image>
		
			<image style="overflow:visible;" width="1080" height="1080" xlink:href="../../../../../../../Users/DELL/Desktop/New folder/social-media-posters-mdesign (43).jpg"  transform="matrix(0.1356 -6.261617e-02 6.261617e-02 0.1356 437.7023 -215.2357)">
		</image>
		
			<image style="overflow:visible;" width="1080" height="1080" xlink:href="../../../../../../../Users/DELL/Desktop/New folder/social-media-posters-mdesign (44).jpg"  transform="matrix(0.1356 -6.261617e-02 6.261617e-02 0.1356 273.1226 -139.2363)">
		</image>
		
			<image style="overflow:visible;" width="1080" height="1080" xlink:href="../../../../../../../Users/DELL/Desktop/New folder/social-media-posters-mdesign (45).jpg"  transform="matrix(0.1356 -6.261617e-02 6.261617e-02 0.1356 108.5429 -63.2369)">
		</image>
		
			<image style="overflow:visible;" width="1080" height="1080" xlink:href="../../../../../../../Users/DELL/Desktop/New folder/social-media-posters-mdesign (46).jpg"  transform="matrix(0.1356 -6.261617e-02 6.261617e-02 0.1356 -56.0368 12.7626)">
		</image>
		
			<image style="overflow:visible;" width="1080" height="1080" xlink:href="../../../../../../../Users/DELL/Desktop/New folder/social-media-posters-mdesign (47).jpg"  transform="matrix(0.1356 -6.261617e-02 6.261617e-02 0.1356 -220.6165 88.762)">
		</image>
		
			<image style="overflow:visible;" width="1080" height="1080" xlink:href="../../../../../../../Users/DELL/Desktop/New folder/social-media-posters-mdesign (48).jpg"  transform="matrix(0.1356 -6.261617e-02 6.261617e-02 0.1356 -385.1963 164.7615)">
		</image>
		
			<image style="overflow:visible;" width="1080" height="1080" xlink:href="../../../../../../../Users/DELL/Desktop/New folder/social-media-posters-mdesign (49).jpg"  transform="matrix(0.1356 -6.261617e-02 6.261617e-02 0.1356 -549.7759 240.7609)">
		</image>
		
			<image style="overflow:visible;" width="1080" height="1080" xlink:href="../../../../../../../Users/DELL/Desktop/New folder/social-media-posters-mdesign (50).jpg"  transform="matrix(0.1356 -6.261617e-02 6.261617e-02 0.1356 -714.3557 316.7603)">
		</image>
	</g>
</g>
</svg>
