<?xml version="1.0" encoding="utf-8"?>
<!-- Generator: Adobe Illustrator 26.3.0, SVG Export Plug-In . SVG Version: 6.00 Build 0)  -->
<svg version="1.1" id="Layer_1" xmlns="http://www.w3.org/2000/svg" xmlns:xlink="http://www.w3.org/1999/xlink" x="0px" y="0px"
	 viewBox="0 0 1711.1 750.3" style="enable-background:new 0 0 1711.1 750.3;" xml:space="preserve">
<style type="text/css">
	.st0{fill:#FFFFFF;}
	.st1{fill:url(#SVGID_1_);}
</style>
<linearGradient id="SVGID_1_" gradientUnits="userSpaceOnUse" x1="856.999" y1="745.0587" x2="856.999" y2="10.0666">
	<stop  offset="0" style="stop-color:#A340EE"/>
	<stop  offset="0.3101" style="stop-color:#574FEC"/>
	<stop  offset="0.662" style="stop-color:#3ADDFB"/>
	<stop  offset="1" style="stop-color:#73F5D6"/>
</linearGradient>
<path class="st1" d="M703.5,249.6l116-116l-6.8-6.8l-90.7-90.7l0,0c-34.7-34.7-90.9-34.7-125.6,0l0,0l-53.1,53.1h-0.1l0.1,0.1
	l-37.6,37.6L379.2,253.2l-53.1,53.1L104.4,528l-53.1,53.1h0L39,593.4c-56,56-16.3,151.7,62.8,151.7h413.2l164-164l82-82l58.4-58.4
	l37.6-37.6l67.9-68l28.9-28.9l19.2-19.1l5.1-5.1l28.9-28.9l3.6-3.6l6.8-6.8l37.6-37.6l48,48l28.8,28.9l24.3,24.3l28.9,28.9l164,164
	l82,82h-164l-198.2-198.2L953,499.1l245.9,245.9h413.2c79.2,0,118.8-95.7,62.8-151.7l-94.2-94.2l-164-164l-28.9-28.9l-179.4-179.4
	l-37.6-37.6l-0.1-0.1l-53.1-53.1C1083,1.4,1026.8,1.4,992.1,36l0,0l-53,53.1h-0.1l-37.5,37.6l-6.8,6.8L857,171.2l-82.1,82L746.1,282
	l-5.1,5.1l-19.2,19.1l-18.4,18.5L693,335.2l-163.9,164l-82,82H283.2l28.9-28.9l24.3-24.3l28.8-28.9l291.5-291.5L703.5,249.6z"/>
</svg>
