<?xml version="1.0" encoding="utf-8"?>
<!-- Generator: Adobe Illustrator 26.3.0, SVG Export Plug-In . SVG Version: 6.00 Build 0)  -->
<svg version="1.1" id="Layer_1" xmlns="http://www.w3.org/2000/svg" xmlns:xlink="http://www.w3.org/1999/xlink" x="0px" y="0px"
	 viewBox="0 0 1711.1 750.3" style="enable-background:new 0 0 1711.1 750.3;" xml:space="preserve">
<style type="text/css">
	.st0{fill:#FFFFFF;}
	.st1{fill:url(#SVGID_1_);}
</style>
<g id="Layer_2_00000013188879677275577850000015135855958465912998_">
	<rect x="-1048.2" y="-3192.9" width="1400" height="1500"/>
</g>
<g id="Layer_3">
	<rect x="2819.3" y="-3228.5" width="1400" height="1500"/>
</g>
<g id="Layer_1_00000109022357006115815250000003662797312815983551_">
	<polygon class="st0" points="872,-857.2 872,-982.2 763.7,-1044.7 655.4,-1107.3 655.4,-1107.2 547.1,-1169.8 438.8,-1107.2 
		438.8,-1107.2 438.8,-1107.2 438.8,-1107.3 330.5,-1044.7 222.2,-982.2 222.2,-857.2 330.5,-794.6 438.8,-732.1 438.8,-732.1 
		547.1,-669.6 547.1,-794.6 655.4,-732.1 655.4,-732.1 763.7,-669.6 655.4,-607.1 655.4,-607.1 547.1,-544.5 547.1,-544.5 
		438.8,-607.1 438.8,-607.1 330.5,-669.6 330.5,-794.6 222.2,-732.1 222.2,-607.1 330.5,-544.5 438.8,-482 438.8,-482 547.1,-419.5 
		655.4,-482 655.4,-482 655.4,-482 763.7,-544.5 872,-607.1 872,-732.1 763.7,-794.6 655.4,-857.2 655.4,-857.2 547.1,-919.7 
		547.1,-794.6 438.8,-857.2 438.8,-857.2 330.5,-919.7 438.8,-982.2 438.8,-982.2 547.1,-1044.7 547.1,-1044.7 655.4,-982.2 
		655.4,-982.2 763.7,-919.7 763.7,-794.6 	"/>
	<polygon points="2326,-2637 2326,-2762.1 2217.7,-2824.6 2109.4,-2887.1 2109.4,-2887.1 2001.1,-2949.6 1892.8,-2887.1 
		1892.8,-2887.1 1892.8,-2887.1 1892.8,-2887.1 1784.5,-2824.6 1676.2,-2762.1 1676.2,-2637 1784.5,-2574.5 1892.8,-2512 
		1892.8,-2512 2001.1,-2449.4 2001.1,-2574.5 2109.4,-2512 2109.4,-2512 2217.7,-2449.4 2109.4,-2386.9 2109.4,-2386.9 
		2001.1,-2324.4 2001.1,-2324.4 1892.8,-2386.9 1892.8,-2386.9 1784.5,-2449.4 1784.5,-2574.5 1676.2,-2512 1676.2,-2386.9 
		1784.5,-2324.4 1892.8,-2261.9 1892.8,-2261.9 2001.1,-2199.3 2109.4,-2261.9 2109.4,-2261.9 2109.4,-2261.9 2217.7,-2324.4 
		2326,-2386.9 2326,-2512 2217.7,-2574.5 2109.4,-2637 2109.4,-2637 2001.1,-2699.5 2001.1,-2574.5 1892.8,-2637 1892.8,-2637 
		1784.5,-2699.5 1892.8,-2762.1 1892.8,-2762.1 2001.1,-2824.6 2001.1,-2824.6 2109.4,-2762.1 2109.4,-2762.1 2217.7,-2699.5 
		2217.7,-2574.5 	"/>
</g>
<linearGradient id="SVGID_1_" gradientUnits="userSpaceOnUse" x1="856.999" y1="745.0587" x2="856.999" y2="10.0666">
	<stop  offset="0" style="stop-color:#A340EE"/>
	<stop  offset="0.3101" style="stop-color:#574FEC"/>
	<stop  offset="0.662" style="stop-color:#3ADDFB"/>
	<stop  offset="1" style="stop-color:#73F5D6"/>
</linearGradient>
<path class="st1" d="M703.5,249.6l116-116l-6.8-6.8l-90.7-90.7l0,0c-34.7-34.7-90.9-34.7-125.6,0l0,0l-53.1,53.1h-0.1l0.1,0.1
	l-37.6,37.6L379.2,253.2l-53.1,53.1L104.4,528l-53.1,53.1h0L39,593.4c-56,56-16.3,151.7,62.8,151.7h413.2l164-164l82-82l58.4-58.4
	l37.6-37.6l67.9-68l28.9-28.9l19.2-19.1l5.1-5.1l28.9-28.9l3.6-3.6l6.8-6.8l37.6-37.6l48,48l28.8,28.9l24.3,24.3l28.9,28.9l164,164
	l82,82h-164l-198.2-198.2L953,499.1l245.9,245.9h413.2c79.2,0,118.8-95.7,62.8-151.7l-94.2-94.2l-164-164l-28.9-28.9l-179.4-179.4
	l-37.6-37.6l-0.1-0.1l-53.1-53.1C1083,1.4,1026.8,1.4,992.1,36l0,0l-53,53.1h-0.1l-37.5,37.6l-6.8,6.8L857,171.2l-82.1,82L746.1,282
	l-5.1,5.1l-19.2,19.1l-18.4,18.5L693,335.2l-163.9,164l-82,82H283.2l28.9-28.9l24.3-24.3l28.8-28.9l291.5-291.5L703.5,249.6z"/>
</svg>
