<?xml version="1.0" encoding="utf-8"?>
<!-- Generator: Adobe Illustrator 26.3.0, SVG Export Plug-In . SVG Version: 6.00 Build 0)  -->
<svg version="1.1" id="Layer_1" xmlns="http://www.w3.org/2000/svg" xmlns:xlink="http://www.w3.org/1999/xlink" x="0px" y="0px"
	 viewBox="0 0 1857.8 750.3" style="enable-background:new 0 0 1857.8 750.3;" xml:space="preserve">
<style type="text/css">
	.st0{fill:#1A1A20;}
	.st1{fill:url(#SVGID_1_);}
</style>
<rect x="2190.9" y="-1776" width="1400" height="1500"/>
<g id="Layer_3">
	<rect x="4113.6" y="-2421.4" width="1400" height="1500"/>
</g>
<polygon class="st0" points="5048,-2 5048,-127.1 4939.7,-189.6 4831.4,-252.1 4831.4,-252.1 4723.1,-314.7 4614.8,-252.1 
	4614.8,-252.1 4614.8,-252.1 4614.8,-252.1 4506.5,-189.6 4398.2,-127.1 4398.2,-2 4506.5,60.5 4614.8,123 4614.8,123 4723.1,185.5 
	4723.1,60.5 4831.4,123 4831.4,123 4939.7,185.5 4831.4,248.1 4831.4,248.1 4723.1,310.6 4723.1,310.6 4614.8,248.1 4614.8,248.1 
	4506.5,185.5 4506.5,60.5 4398.2,123 4398.2,248.1 4506.5,310.6 4614.8,373.1 4614.8,373.1 4723.1,435.6 4831.4,373.1 4831.4,373.1 
	4831.4,373.1 4939.7,310.6 5048,248.1 5048,123 4939.7,60.5 4831.4,-2 4831.4,-2 4723.1,-64.6 4723.1,60.5 4614.8,-2 4614.8,-2 
	4506.5,-64.6 4614.8,-127.1 4614.8,-127.1 4723.1,-189.6 4723.1,-189.6 4831.4,-127.1 4831.4,-127.1 4939.7,-64.6 4939.7,60.5 "/>
<polygon points="6502,-1781.9 6502,-1907 6393.7,-1969.5 6285.4,-2032 6285.4,-2032 6177.1,-2094.5 6068.8,-2032 6068.8,-2032 
	6068.8,-2032 6068.8,-2032 5960.5,-1969.5 5852.2,-1907 5852.2,-1781.9 5960.5,-1719.4 6068.8,-1656.9 6068.8,-1656.9 
	6177.1,-1594.3 6177.1,-1719.4 6285.4,-1656.9 6285.4,-1656.9 6393.7,-1594.3 6285.4,-1531.8 6285.4,-1531.8 6177.1,-1469.3 
	6177.1,-1469.3 6068.8,-1531.8 6068.8,-1531.8 5960.5,-1594.3 5960.5,-1719.4 5852.2,-1656.9 5852.2,-1531.8 5960.5,-1469.3 
	6068.8,-1406.8 6068.8,-1406.8 6177.1,-1344.2 6285.4,-1406.8 6285.4,-1406.8 6285.4,-1406.8 6393.7,-1469.3 6502,-1531.8 
	6502,-1656.9 6393.7,-1719.4 6285.4,-1781.9 6285.4,-1781.9 6177.1,-1844.4 6177.1,-1719.4 6068.8,-1781.9 6068.8,-1781.9 
	5960.5,-1844.4 6068.8,-1907 6068.8,-1907 6177.1,-1969.5 6177.1,-1969.5 6285.4,-1907 6285.4,-1907 6393.7,-1844.4 6393.7,-1719.4 
	"/>
<linearGradient id="SVGID_1_" gradientUnits="userSpaceOnUse" x1="888.1193" y1="742.882" x2="888.1193" y2="7.8898">
	<stop  offset="0" style="stop-color:#A340EE"/>
	<stop  offset="0.3101" style="stop-color:#574FEC"/>
	<stop  offset="0.662" style="stop-color:#3ADDFB"/>
	<stop  offset="1" style="stop-color:#73F5D6"/>
</linearGradient>
<path class="st1" d="M734.6,247.4l116-116l-6.8-6.8l-90.7-90.7l0,0c-34.7-34.7-90.9-34.7-125.6,0l0,0L574.3,87h-0.1l0.1,0.1
	l-37.6,37.6L410.3,251l-53.1,53.1L135.5,525.8l-53.1,53.1h0l-12.3,12.3c-56,56-16.3,151.7,62.8,151.7h413.2l164-164l82-82l58.4-58.4
	l37.6-37.6l67.9-68l28.9-28.9l19.2-19.1l5.1-5.1l28.9-28.9l3.6-3.6l6.8-6.8l37.6-37.6l48,48l28.8,28.9l24.3,24.3l28.9,28.9l164,164
	l82,82h-164l-198.2-198.2L984.1,496.9L1230,742.9h413.2c79.2,0,118.8-95.7,62.8-151.7l-94.2-94.2l-164-164l-28.9-28.9l-179.4-179.4
	L1202,87.1L1202,87l-53.1-53.1c-34.7-34.7-90.9-34.7-125.6-0.1l0,0l-53,53.1h-0.1l-37.5,37.6l-6.8,6.8L888.2,169l-82.1,82
	l-28.8,28.9l-5.1,5.1L753,304.1l-18.4,18.5L724.1,333l-163.9,164l-82,82H314.3l28.9-28.9l24.3-24.3l28.8-28.9l291.5-291.5
	L734.6,247.4z"/>
</svg>
